<mxfile host="app.diagrams.net" modified="2023-09-04T03:16:12.632Z" agent="Mozilla/5.0 (Windows NT 10.0; Win64; x64) AppleWebKit/537.36 (KHTML, like Gecko) Chrome/116.0.0.0 Safari/537.36 Edg/116.0.1938.69" etag="nvuWlqaLO6-VPNztgVWP" version="21.7.2" type="device">
  <diagram name="DependencyDiagram" id="zkCOottchpnAbL-2k-eb">
    <mxGraphModel dx="1434" dy="764" grid="1" gridSize="10" guides="1" tooltips="1" connect="1" arrows="1" fold="1" page="1" pageScale="1" pageWidth="850" pageHeight="1100" math="0" shadow="0">
      <root>
        <mxCell id="0" />
        <mxCell id="1" parent="0" />
        <mxCell id="PUgC1foxEc2--b-FexyI-1" value="Resource" style="ellipse;whiteSpace=wrap;html=1;" vertex="1" parent="1">
          <mxGeometry x="90" y="320" width="120" height="80" as="geometry" />
        </mxCell>
        <mxCell id="PUgC1foxEc2--b-FexyI-4" style="rounded=0;orthogonalLoop=1;jettySize=auto;html=1;exitX=0;exitY=1;exitDx=0;exitDy=0;entryX=1;entryY=0;entryDx=0;entryDy=0;" edge="1" parent="1" source="PUgC1foxEc2--b-FexyI-2" target="PUgC1foxEc2--b-FexyI-1">
          <mxGeometry relative="1" as="geometry" />
        </mxCell>
        <mxCell id="PUgC1foxEc2--b-FexyI-2" value="Services" style="ellipse;whiteSpace=wrap;html=1;" vertex="1" parent="1">
          <mxGeometry x="290" y="140" width="120" height="80" as="geometry" />
        </mxCell>
        <mxCell id="PUgC1foxEc2--b-FexyI-7" style="edgeStyle=none;rounded=0;orthogonalLoop=1;jettySize=auto;html=1;exitX=0;exitY=0.5;exitDx=0;exitDy=0;entryX=1;entryY=0.375;entryDx=0;entryDy=0;entryPerimeter=0;" edge="1" parent="1" source="PUgC1foxEc2--b-FexyI-6" target="PUgC1foxEc2--b-FexyI-1">
          <mxGeometry relative="1" as="geometry">
            <mxPoint x="520" y="220" as="sourcePoint" />
            <mxPoint x="250" y="400" as="targetPoint" />
          </mxGeometry>
        </mxCell>
        <mxCell id="PUgC1foxEc2--b-FexyI-6" value="Location" style="ellipse;whiteSpace=wrap;html=1;" vertex="1" parent="1">
          <mxGeometry x="410" y="230" width="120" height="80" as="geometry" />
        </mxCell>
        <mxCell id="PUgC1foxEc2--b-FexyI-9" style="edgeStyle=none;rounded=0;orthogonalLoop=1;jettySize=auto;html=1;exitX=0;exitY=0.5;exitDx=0;exitDy=0;entryX=0.942;entryY=0.725;entryDx=0;entryDy=0;entryPerimeter=0;" edge="1" parent="1" source="PUgC1foxEc2--b-FexyI-8" target="PUgC1foxEc2--b-FexyI-1">
          <mxGeometry relative="1" as="geometry" />
        </mxCell>
        <mxCell id="PUgC1foxEc2--b-FexyI-8" value="Person" style="ellipse;whiteSpace=wrap;html=1;" vertex="1" parent="1">
          <mxGeometry x="510" y="350" width="120" height="80" as="geometry" />
        </mxCell>
        <mxCell id="PUgC1foxEc2--b-FexyI-11" style="edgeStyle=none;rounded=0;orthogonalLoop=1;jettySize=auto;html=1;exitX=0;exitY=1;exitDx=0;exitDy=0;entryX=1;entryY=0;entryDx=0;entryDy=0;" edge="1" parent="1" source="PUgC1foxEc2--b-FexyI-10" target="PUgC1foxEc2--b-FexyI-6">
          <mxGeometry relative="1" as="geometry" />
        </mxCell>
        <mxCell id="PUgC1foxEc2--b-FexyI-12" style="edgeStyle=none;rounded=0;orthogonalLoop=1;jettySize=auto;html=1;exitX=0.5;exitY=1;exitDx=0;exitDy=0;entryX=0.5;entryY=0;entryDx=0;entryDy=0;" edge="1" parent="1" source="PUgC1foxEc2--b-FexyI-10" target="PUgC1foxEc2--b-FexyI-8">
          <mxGeometry relative="1" as="geometry" />
        </mxCell>
        <mxCell id="PUgC1foxEc2--b-FexyI-13" style="edgeStyle=none;rounded=0;orthogonalLoop=1;jettySize=auto;html=1;exitX=0;exitY=0.5;exitDx=0;exitDy=0;" edge="1" parent="1" source="PUgC1foxEc2--b-FexyI-10" target="PUgC1foxEc2--b-FexyI-2">
          <mxGeometry relative="1" as="geometry" />
        </mxCell>
        <mxCell id="PUgC1foxEc2--b-FexyI-10" value="Psql" style="ellipse;whiteSpace=wrap;html=1;" vertex="1" parent="1">
          <mxGeometry x="640" y="90" width="100" height="80" as="geometry" />
        </mxCell>
      </root>
    </mxGraphModel>
  </diagram>
</mxfile>
